<svg xmlns="http://www.w3.org/2000/svg" viewBox="0 0 160 160" fill="none" role="img" aria-label="The Chronoforge emblem, a broken clock becoming a rising sun"><defs><linearGradient id="c" x2="0" y2="1"><stop stop-color="#edd2a0"/><stop offset="1" stop-color="#b18060"/></linearGradient><linearGradient id="l" x2="0" y2="1"><stop stop-color="#b6e4d9"/><stop offset="1" stop-color="#689aa1"/></linearGradient></defs><circle cx="80" cy="80" r="64" stroke="#bca380" stroke-width=".75" opacity=".4"/><path d="M80 5v18M80 137v18M5 80h18m114 0h18M27 27l12 12m82 82 12 12M27 133l12-12m82-82 12-12" stroke="#ad9272" stroke-width="1"/><path d="M43 111A48 48 0 0 1 79 32m2 0a48 48 0 0 1 37 77" stroke="url(#c)" stroke-width="3"/><path d="m80 41 15 35-15 37-15-37Z" fill="#203a46" stroke="url(#c)" stroke-width="2"/><path d="m80 54 9 23-9 21-9-21Z" fill="url(#l)"/><path d="m80 72 5 6-5 11-5-11Z" fill="#e4edca"/><path d="m37 108 26-8 17 15 17-15 26 8M48 119l32 17 32-17M57 127l23 12 23-12" stroke="url(#c)" stroke-width="2"/><path d="m47 61 13 8m40 0 13-8M43 80h16m42 0h16M80 22v10" stroke="url(#l)" stroke-width="1.5"/><circle cx="80" cy="22" r="2" fill="#dfc399"/></svg>
